<mxfile host="app.diagrams.net" modified="2022-03-11T01:54:37.094Z" agent="5.0 (Windows NT 10.0; Win64; x64) AppleWebKit/537.36 (KHTML, like Gecko) Chrome/99.0.4844.51 Safari/537.36" etag="DT3cu_bKoRT9zsAdVuCu" version="17.1.0" type="github">
  <diagram id="kHMABfsJ2mvt8AkLex9S" name="第 1 页">
    <mxGraphModel dx="1038" dy="539" grid="1" gridSize="10" guides="1" tooltips="1" connect="1" arrows="1" fold="1" page="1" pageScale="1" pageWidth="827" pageHeight="1169" math="0" shadow="0">
      <root>
        <mxCell id="0" />
        <mxCell id="1" parent="0" />
        <mxCell id="YACxKaTQ8DfaLfjlcni6-1" value="物资计划合同处主要职能" style="whiteSpace=wrap;html=1;fontSize=18;fontFamily=MiSans;rounded=1;fillColor=#fff2cc;strokeColor=#d6b656;" vertex="1" parent="1">
          <mxGeometry x="220" y="70" width="240" height="60" as="geometry" />
        </mxCell>
        <mxCell id="YACxKaTQ8DfaLfjlcni6-2" value="物资标准化" style="whiteSpace=wrap;html=1;fontSize=18;fontFamily=MiSans;rounded=1;fillColor=#f8cecc;strokeColor=#b85450;" vertex="1" parent="1">
          <mxGeometry x="245" y="150" width="190" height="60" as="geometry" />
        </mxCell>
        <mxCell id="YACxKaTQ8DfaLfjlcni6-3" value="采购目录合规" style="whiteSpace=wrap;html=1;fontSize=18;fontFamily=MiSans;rounded=1;fillColor=#dae8fc;strokeColor=#6c8ebf;" vertex="1" parent="1">
          <mxGeometry x="245" y="230" width="190" height="60" as="geometry" />
        </mxCell>
        <mxCell id="YACxKaTQ8DfaLfjlcni6-4" value="采购需求合规" style="whiteSpace=wrap;html=1;fontSize=18;fontFamily=MiSans;rounded=1;fillColor=#ffe6cc;strokeColor=#d79b00;" vertex="1" parent="1">
          <mxGeometry x="245" y="310" width="190" height="60" as="geometry" />
        </mxCell>
        <mxCell id="YACxKaTQ8DfaLfjlcni6-5" value="采购方式合规" style="whiteSpace=wrap;html=1;fontSize=18;fontFamily=MiSans;rounded=1;fillColor=#f5f5f5;strokeColor=#666666;fontColor=#333333;" vertex="1" parent="1">
          <mxGeometry x="245" y="390" width="190" height="60" as="geometry" />
        </mxCell>
        <mxCell id="YACxKaTQ8DfaLfjlcni6-6" value="合同管理" style="whiteSpace=wrap;html=1;fontSize=18;fontFamily=MiSans;rounded=1;fillColor=#d5e8d4;strokeColor=#82b366;" vertex="1" parent="1">
          <mxGeometry x="245" y="470" width="190" height="60" as="geometry" />
        </mxCell>
      </root>
    </mxGraphModel>
  </diagram>
</mxfile>
